<svg width="145" height="33" viewBox="0 0 145 33" fill="none" xmlns="http://www.w3.org/2000/svg">
<g clip-path="url(#clip0_14_207)">
<path opacity="0.3" d="M20.4355 16.2865C23.6133 13.9255 27.389 12.5009 31.3351 12.1742C31.3161 12.1015 31.294 12.0287 31.2718 11.956C28.5525 11.5377 26.0379 10.2623 24.0944 8.31577C22.1509 6.36923 20.8801 3.85321 20.4671 1.13434L20.2804 1.08057C19.9388 5.02594 18.4982 8.79675 16.1218 11.9655C17.3473 13.6031 18.7997 15.0581 20.4355 16.2865Z" fill="#42EA95"/>
<path opacity="0.3" d="M11.6943 16.3657C8.51643 18.7288 4.73907 20.1536 0.791504 20.478C0.813658 20.5508 0.832647 20.6235 0.8548 20.6963C3.57367 21.1144 6.08796 22.3893 8.03141 24.3352C9.97486 26.2811 11.2459 28.7965 11.6595 31.5147L11.8589 31.5717C12.1992 27.6281 13.6376 23.8585 16.0111 20.6899C14.7846 19.0512 13.3311 17.5952 11.6943 16.3657Z" fill="#42EA95"/>
<path d="M16.065 0.508058C14.676 0.50746 13.2928 0.688244 11.9507 1.04582L11.7671 1.09959C11.3601 3.84473 10.0782 6.38549 8.11185 8.34466C6.14546 10.3038 3.5994 11.577 0.851647 11.975L0.788351 12.1901C0.0562268 14.901 0.0562268 17.7575 0.788351 20.4685C4.73592 20.144 8.51328 18.7193 11.6912 16.3562C13.3741 15.1124 14.8667 13.6301 16.1219 11.956C18.4967 8.78999 19.9372 5.02269 20.2805 1.08061C18.9076 0.700326 17.4896 0.507721 16.065 0.508058Z" fill="url(#paint0_linear_14_207)"/>
<path d="M31.3352 12.1807C26.3241 12.603 21.6228 14.7796 18.0599 18.3269C14.497 21.8742 12.301 26.5646 11.8589 31.5717C13.2288 31.9503 14.6436 32.1419 16.0649 32.1411C17.454 32.1422 18.8372 31.9614 20.1792 31.6033L20.3723 31.5464C20.7799 28.8034 22.0608 26.2646 24.0252 24.3063C25.9895 22.348 28.5329 21.0744 31.2782 20.6741C31.2972 20.6014 31.3194 20.5318 31.3384 20.459C32.0748 17.7486 32.0748 14.891 31.3384 12.1807H31.3352Z" fill="url(#paint1_linear_14_207)"/>
</g>
<defs>
<linearGradient id="paint0_linear_14_207" x1="12.7894" y1="13.0442" x2="5.31768" y2="5.51828" gradientUnits="userSpaceOnUse">
<stop stop-color="#42EA95"/>
<stop offset="0.57" stop-color="#2BDDBA"/>
<stop offset="0.72" stop-color="#25DAC4"/>
<stop offset="1" stop-color="#03C7FD"/>
</linearGradient>
<linearGradient id="paint1_linear_14_207" x1="18.0619" y1="18.8837" x2="26.5529" y2="26.0747" gradientUnits="userSpaceOnUse">
<stop stop-color="#42EA95"/>
<stop offset="0.68" stop-color="#25DAC4"/>
<stop offset="1" stop-color="#03C7FD"/>
</linearGradient>
<clipPath id="clip0_14_207">
<rect width="145" height="32.2656" fill="white" transform="translate(0 0.359375)"/>
</clipPath>
</defs>
</svg>
